<svg width="243" height="87" viewBox="0 0 243 87" fill="none" xmlns="http://www.w3.org/2000/svg">
<g clip-path="url(#clip0_5_3137)">
<path d="M229.443 0.306152H13.5565C6.06946 0.306152 0 6.49453 0 14.1283V72.8721C0 80.5058 6.06946 86.6942 13.5565 86.6942H229.443C236.931 86.6942 243 80.5058 243 72.8721V14.1283C243 6.49453 236.931 0.306152 229.443 0.306152Z" fill="#121212"/>
<path d="M62.7258 39.5216H41.5125C39.828 39.5216 38.4623 40.914 38.4623 42.6316V64.2604C38.4623 65.978 39.828 67.3704 41.5125 67.3704H62.7258C64.4104 67.3704 65.776 65.978 65.776 64.2604V42.6316C65.776 40.914 64.4104 39.5216 62.7258 39.5216Z" fill="#00FFA3"/>
<path d="M25.1455 67.3705H30.875C33.7507 67.3705 35.1887 67.3705 36.0821 66.4596C36.9754 65.5487 36.9754 64.0827 36.9754 61.1506V44.226C36.9754 41.294 36.9754 39.8279 37.8689 38.917C38.7622 38.0061 40.2001 38.0061 43.0758 38.0061H59.6751C62.5509 38.0061 63.9888 38.0061 64.8821 37.0953C65.7755 36.1843 65.7755 34.7183 65.7755 31.7862V25.7549C65.7755 22.8228 65.7755 21.3568 64.8821 20.4459C63.9888 19.535 62.5509 19.535 59.6751 19.535H25.1455C22.2697 19.535 20.8319 19.535 19.9384 20.4459C19.0451 21.3568 19.0451 22.8228 19.0451 25.7549V61.1506C19.0451 64.0827 19.0451 65.5487 19.9384 66.4596C20.8319 67.3705 22.2697 67.3705 25.1455 67.3705Z" fill="#00FFA3"/>
<path d="M88.7702 28.7363C89.9652 28.7363 90.9972 28.9505 91.8663 29.3788C92.7354 29.7997 93.4057 30.4347 93.8759 31.2839C94.3471 32.1331 94.5827 33.1964 94.5827 34.4739V36.4012H86.9886C87.0248 37.0583 87.2638 37.5974 87.7056 38.0183C88.1547 38.4392 88.8136 38.6497 89.6828 38.6497C90.4504 38.6497 91.1529 38.5721 91.7903 38.417C92.4349 38.2619 93.0978 38.022 93.7785 37.6971V40.8095C93.184 41.1271 92.5363 41.3596 91.8337 41.5073C91.1312 41.655 90.244 41.7289 89.1722 41.7289C87.9337 41.7289 86.8257 41.5036 85.8479 41.0532C84.8702 40.6028 84.0989 39.905 83.534 38.9597C82.9763 38.0146 82.6975 36.7999 82.6975 35.3157C82.6975 33.8092 82.951 32.5724 83.458 31.6051C83.9649 30.6303 84.6747 29.9104 85.5872 29.4452C86.4997 28.9726 87.5607 28.7363 88.7702 28.7363ZM88.9223 31.6827C88.4226 31.6827 88.0026 31.845 87.6622 32.17C87.329 32.4875 87.1334 32.9897 87.0755 33.6764H90.7256C90.7184 33.3072 90.646 32.9712 90.5084 32.6684C90.3708 32.3657 90.168 32.1257 89.9 31.9485C89.6393 31.7713 89.3134 31.6827 88.9223 31.6827ZM101.231 41.5073H96.983V24.2725H101.231V41.5073ZM110.182 28.7363C111.739 28.7363 112.956 29.1314 113.833 29.9215C114.709 30.7042 115.147 31.8229 115.147 33.2776V41.5073H112.203L111.388 39.8459H111.301C110.954 40.289 110.595 40.6508 110.226 40.9313C109.864 41.2046 109.447 41.404 108.976 41.5295C108.506 41.6624 107.93 41.7289 107.249 41.7289C106.54 41.7289 105.902 41.5812 105.337 41.2859C104.772 40.9904 104.327 40.5437 104.001 39.9456C103.675 39.3475 103.512 38.5906 103.512 37.6749C103.512 36.331 103.968 35.3341 104.88 34.6844C105.793 34.0345 107.115 33.669 108.846 33.5878L110.899 33.5213V33.3441C110.899 32.7828 110.762 32.3842 110.486 32.1478C110.218 31.9115 109.856 31.7934 109.4 31.7934C108.915 31.7934 108.372 31.882 107.771 32.0592C107.177 32.2291 106.579 32.4506 105.978 32.7238L104.751 29.8661C105.46 29.4969 106.264 29.2163 107.162 29.0243C108.06 28.8323 109.067 28.7363 110.182 28.7363ZM110.921 35.9027L109.944 35.947C109.161 35.9766 108.611 36.1168 108.292 36.3679C107.98 36.6116 107.825 36.9623 107.825 37.4202C107.825 37.8485 107.937 38.166 108.162 38.3728C108.386 38.5721 108.683 38.6718 109.052 38.6718C109.567 38.6718 110.005 38.5056 110.367 38.1733C110.737 37.841 110.921 37.4091 110.921 36.8774V35.9027ZM127.184 37.6528C127.184 38.4503 127.01 39.1555 126.662 39.7684C126.315 40.3813 125.757 40.8613 124.989 41.2083C124.229 41.5554 123.226 41.7289 121.98 41.7289C121.104 41.7289 120.317 41.6809 119.623 41.5849C118.935 41.4889 118.235 41.3043 117.526 41.0311V37.5642C118.301 37.926 119.09 38.1881 119.895 38.3506C120.698 38.5056 121.332 38.5832 121.795 38.5832C122.274 38.5832 122.621 38.5315 122.838 38.4281C123.063 38.3174 123.175 38.1549 123.175 37.9408C123.175 37.7561 123.099 37.6011 122.947 37.4755C122.802 37.3427 122.538 37.1913 122.154 37.0214C121.777 36.8516 121.245 36.6227 120.557 36.3347C119.876 36.0467 119.307 35.7329 118.851 35.3932C118.402 35.0535 118.066 34.6474 117.841 34.1748C117.617 33.7022 117.504 33.1225 117.504 32.4358C117.504 31.21 117.968 30.287 118.895 29.6667C119.822 29.0465 121.049 28.7363 122.578 28.7363C123.388 28.7363 124.153 28.8286 124.87 29.0132C125.586 29.1904 126.329 29.4526 127.096 29.7997L125.934 32.5909C125.326 32.3103 124.71 32.085 124.088 31.9152C123.464 31.7454 122.968 31.6604 122.599 31.6604C122.266 31.6604 122.009 31.7048 121.828 31.7934C121.647 31.882 121.557 32.0112 121.557 32.181C121.557 32.3361 121.618 32.4728 121.741 32.5909C121.871 32.7091 122.114 32.8456 122.469 33.0007C122.824 33.1558 123.342 33.3736 124.023 33.6543C124.74 33.9496 125.33 34.2671 125.793 34.6068C126.264 34.9391 126.611 35.3452 126.836 35.8252C127.068 36.3051 127.184 36.9144 127.184 37.6528ZM135.581 38.3063C135.965 38.3063 136.317 38.2656 136.635 38.1844C136.954 38.1032 137.287 37.9998 137.634 37.8743V41.0311C137.171 41.2378 136.678 41.404 136.157 41.5295C135.642 41.6624 134.984 41.7289 134.18 41.7289C133.383 41.7289 132.681 41.6033 132.072 41.3522C131.464 41.0938 130.989 40.6508 130.649 40.0231C130.316 39.388 130.15 38.5056 130.15 37.3759V32.2033H128.661V30.4421L130.551 29.0797L131.649 26.4435H134.43V28.9579H137.45V32.2033H134.43V37.0879C134.43 37.494 134.531 37.8005 134.733 38.0072C134.936 38.2066 135.219 38.3063 135.581 38.3063ZM144.054 28.9579V41.5073H139.807V28.9579H144.054ZM141.947 23.907C142.556 23.907 143.084 24.0362 143.533 24.2947C143.99 24.5531 144.218 25.0663 144.218 25.8343C144.218 26.5801 143.99 27.0859 143.533 27.3518C143.084 27.6102 142.556 27.7395 141.947 27.7395C141.324 27.7395 140.792 27.6102 140.35 27.3518C139.916 27.0859 139.698 26.5801 139.698 25.8343C139.698 25.0663 139.916 24.5531 140.35 24.2947C140.792 24.0362 141.324 23.907 141.947 23.907ZM152.626 41.7289C151.381 41.7289 150.297 41.5036 149.378 41.0532C148.458 40.5954 147.745 39.8939 147.238 38.9487C146.738 37.9961 146.488 36.7777 146.488 35.2935C146.488 33.7724 146.767 32.5281 147.325 31.5608C147.89 30.5935 148.66 29.8809 149.639 29.423C150.616 28.9652 151.725 28.7363 152.963 28.7363C153.716 28.7363 154.429 28.8212 155.103 28.9911C155.783 29.1609 156.414 29.3935 156.993 29.6889L155.744 32.89C155.237 32.661 154.762 32.4801 154.321 32.3472C153.886 32.2069 153.433 32.1368 152.963 32.1368C152.535 32.1368 152.159 32.2512 151.833 32.4801C151.507 32.7091 151.254 33.0561 151.073 33.5213C150.892 33.9791 150.801 34.5625 150.801 35.2713C150.801 35.995 150.892 36.5784 151.073 37.0214C151.261 37.4645 151.518 37.7857 151.843 37.9851C152.177 38.1844 152.558 38.2842 152.984 38.2842C153.6 38.2842 154.212 38.1881 154.821 37.9961C155.436 37.7968 156.019 37.5236 156.569 37.1765V40.6213C156.063 40.9609 155.49 41.2304 154.853 41.4298C154.216 41.6292 153.473 41.7289 152.626 41.7289ZM161.371 25.0811L167.292 41.7289H163.533L157.612 25.0811H161.371Z" fill="#00FFA3"/>
<path d="M98.2536 49.5406C99.6588 49.5406 100.731 49.9061 101.47 50.6372C102.216 51.3682 102.589 52.5386 102.589 54.1484V62.3117H98.3408V55.4887C98.3408 54.536 98.2147 53.8752 97.9605 53.5059C97.7148 53.1294 97.3447 52.9411 96.8531 52.9411C96.1649 52.9411 95.6864 53.2475 95.4183 53.8605C95.1577 54.4733 95.0278 55.341 95.0278 56.4634V62.3117H90.7691V55.4887C90.7691 54.8832 90.7148 54.3958 90.6062 54.0266C90.5048 53.65 90.3491 53.3768 90.139 53.2069C89.929 53.0297 89.6647 52.9411 89.346 52.9411C88.8607 52.9411 88.4805 53.0925 88.2053 53.3952C87.9373 53.6906 87.7491 54.1263 87.6404 54.7022C87.5318 55.2782 87.4775 55.9834 87.4775 56.8178V62.3117H83.2298V49.7622H86.4346L87.0537 51.3129H87.1733C87.3905 50.9732 87.6694 50.6704 88.0098 50.4046C88.3574 50.1388 88.7666 49.9283 89.2373 49.7733C89.7153 49.6182 90.2586 49.5406 90.8669 49.5406C91.7722 49.5406 92.5181 49.6957 93.1052 50.0059C93.6913 50.316 94.169 50.7443 94.5391 51.2907H94.6689C95.0603 50.7295 95.5639 50.2975 96.1788 49.9947C96.7947 49.692 97.4866 49.5406 98.2536 49.5406ZM111.486 49.5406C113.043 49.5406 114.26 49.9357 115.136 50.7258C116.012 51.5085 116.451 52.6272 116.451 54.0819V62.3117H113.506L112.692 60.6503H112.605C112.257 61.0933 111.899 61.4551 111.53 61.7357C111.167 62.009 110.751 62.2083 110.28 62.3338C109.809 62.4668 109.233 62.5332 108.552 62.5332C107.843 62.5332 107.206 62.3855 106.641 62.0902C106.076 61.7948 105.631 61.348 105.304 60.7499C104.979 60.1518 104.816 59.3949 104.816 58.4792C104.816 57.1354 105.272 56.1384 106.185 55.4887C107.097 54.8388 108.419 54.4733 110.149 54.3921L112.203 54.3256V54.1484C112.203 53.5872 112.066 53.1885 111.79 52.9522C111.522 52.7158 111.16 52.5977 110.703 52.5977C110.218 52.5977 109.676 52.6863 109.075 52.8636C108.48 53.0334 107.883 53.255 107.282 53.5282L106.054 50.6704C106.764 50.3012 107.567 50.0206 108.466 49.8287C109.364 49.6366 110.37 49.5406 111.486 49.5406ZM112.224 56.7071L111.247 56.7513C110.465 56.7809 109.914 56.9212 109.596 57.1722C109.284 57.4159 109.128 57.7667 109.128 58.2246C109.128 58.6528 109.241 58.9703 109.465 59.1771C109.689 59.3765 109.986 59.4761 110.356 59.4761C110.87 59.4761 111.309 59.31 111.671 58.9777C112.04 58.6454 112.224 58.2134 112.224 57.6818V56.7071ZM127.043 49.5406C128.31 49.5406 129.346 49.9061 130.15 50.6372C130.953 51.3682 131.355 52.5386 131.355 54.1484V62.3117H127.108V55.4665C127.108 54.6321 126.988 54.0044 126.749 53.5835C126.518 53.1552 126.141 52.9411 125.619 52.9411C124.816 52.9411 124.276 53.2771 124 53.9491C123.725 54.6136 123.588 55.5699 123.588 56.8178V62.3117H119.34V49.7622H122.545L123.12 51.4236H123.284C123.544 51.0248 123.856 50.6852 124.218 50.4046C124.58 50.124 124.997 49.9098 125.467 49.7622C125.938 49.6145 126.463 49.5406 127.043 49.5406ZM140.253 49.5406C141.81 49.5406 143.026 49.9357 143.902 50.7258C144.779 51.5085 145.217 52.6272 145.217 54.0819V62.3117H142.273L141.458 60.6503H141.371C141.023 61.0933 140.665 61.4551 140.296 61.7357C139.934 62.009 139.517 62.2083 139.047 62.3338C138.576 62.4668 138 62.5332 137.319 62.5332C136.61 62.5332 135.972 62.3855 135.408 62.0902C134.843 61.7948 134.397 61.348 134.071 60.7499C133.746 60.1518 133.582 59.3949 133.582 58.4792C133.582 57.1354 134.039 56.1384 134.951 55.4887C135.864 54.8388 137.186 54.4733 138.916 54.3921L140.97 54.3256V54.1484C140.97 53.5872 140.831 53.1885 140.557 52.9522C140.289 52.7158 139.926 52.5977 139.47 52.5977C138.985 52.5977 138.442 52.6863 137.84 52.8636C137.247 53.0334 136.649 53.255 136.048 53.5282L134.82 50.6704C135.53 50.3012 136.334 50.0206 137.232 49.8287C138.131 49.6366 139.137 49.5406 140.253 49.5406ZM140.991 56.7071L140.013 56.7513C139.232 56.7809 138.681 56.9212 138.363 57.1722C138.051 57.4159 137.895 57.7667 137.895 58.2246C137.895 58.6528 138.007 58.9703 138.232 59.1771C138.456 59.3765 138.753 59.4761 139.123 59.4761C139.637 59.4761 140.075 59.31 140.437 58.9777C140.806 58.6454 140.991 58.2134 140.991 57.6818V56.7071ZM152.311 67.7613C150.565 67.7613 149.219 67.4622 148.27 66.864C147.328 66.2733 146.857 65.4205 146.857 64.3054C146.857 63.5596 147.085 62.9431 147.542 62.4557C147.998 61.9683 148.683 61.6176 149.595 61.4035C149.219 61.241 148.889 60.9789 148.607 60.617C148.331 60.2552 148.194 59.897 148.194 59.5426C148.194 59.1512 148.299 58.8078 148.508 58.5125C148.719 58.2097 149.157 57.8516 149.823 57.4381C149.186 57.1501 148.683 56.6997 148.313 56.0868C147.951 55.4738 147.77 54.7281 147.77 53.8493C147.77 52.9411 147.973 52.1658 148.378 51.5233C148.791 50.8809 149.388 50.3898 150.171 50.0502C150.961 49.7105 151.92 49.5406 153.049 49.5406C153.201 49.5406 153.433 49.5554 153.745 49.585C154.056 49.6071 154.372 49.6366 154.69 49.6736C155.009 49.7031 155.255 49.7326 155.429 49.7622H159.72V51.8556L158.036 52.487C158.152 52.7011 158.238 52.9337 158.297 53.1848C158.354 53.4359 158.384 53.7017 158.384 53.9823C158.384 55.3336 157.917 56.3821 156.983 57.128C156.055 57.8737 154.669 58.2467 152.822 58.2467C152.366 58.2467 152.003 58.2171 151.735 58.1581C151.685 58.2541 151.645 58.35 151.615 58.446C151.594 58.5346 151.583 58.6196 151.583 58.7008C151.583 58.8706 151.681 59.0073 151.876 59.1106C152.079 59.2066 152.322 59.2731 152.604 59.31C152.894 59.347 153.169 59.3654 153.429 59.3654H155.472C156.856 59.3654 157.892 59.6607 158.579 60.2515C159.267 60.8422 159.611 61.732 159.611 62.9209C159.611 64.4494 158.97 65.6383 157.688 66.4875C156.414 67.3367 154.621 67.7613 152.311 67.7613ZM152.518 65.0586C153.032 65.0586 153.549 65.0107 154.071 64.9147C154.593 64.8261 155.03 64.6784 155.386 64.4715C155.74 64.2648 155.918 63.9916 155.918 63.6519C155.918 63.3935 155.812 63.1978 155.603 63.0649C155.393 62.9394 155.121 62.8545 154.788 62.8101C154.454 62.7659 154.104 62.7436 153.734 62.7436H152.083C151.779 62.7436 151.499 62.7917 151.246 62.8877C151 62.991 150.805 63.1277 150.66 63.2975C150.514 63.4673 150.442 63.6593 150.442 63.8734C150.442 64.2279 150.63 64.5122 151.007 64.7263C151.384 64.9479 151.887 65.0586 152.518 65.0586ZM153.093 55.7988C153.499 55.7988 153.81 55.64 154.028 55.3225C154.252 55.005 154.364 54.5287 154.364 53.8937C154.364 53.2438 154.26 52.7565 154.049 52.4316C153.839 52.1067 153.52 51.9442 153.093 51.9442C152.651 51.9442 152.322 52.1067 152.104 52.4316C151.887 52.7491 151.779 53.2291 151.779 53.8715C151.779 54.5139 151.887 54.9976 152.104 55.3225C152.322 55.64 152.651 55.7988 153.093 55.7988ZM176.624 49.5406C178.028 49.5406 179.1 49.9061 179.839 50.6372C180.585 51.3682 180.958 52.5386 180.958 54.1484V62.3117H176.71V55.4887C176.71 54.536 176.584 53.8752 176.33 53.5059C176.084 53.1294 175.715 52.9411 175.222 52.9411C174.534 52.9411 174.056 53.2475 173.788 53.8605C173.527 54.4733 173.397 55.341 173.397 56.4634V62.3117H169.138V55.4887C169.138 54.8832 169.084 54.3958 168.976 54.0266C168.874 53.65 168.718 53.3768 168.508 53.2069C168.299 53.0297 168.035 52.9411 167.715 52.9411C167.23 52.9411 166.85 53.0925 166.575 53.3952C166.307 53.6906 166.118 54.1263 166.01 54.7022C165.901 55.2782 165.847 55.9834 165.847 56.8178V62.3117H161.6V49.7622H164.804L165.424 51.3129H165.542C165.76 50.9732 166.039 50.6704 166.379 50.4046C166.727 50.1388 167.136 49.9283 167.607 49.7733C168.085 49.6182 168.628 49.5406 169.237 49.5406C170.142 49.5406 170.887 49.6957 171.475 50.0059C172.061 50.316 172.538 50.7443 172.908 51.2907H173.038C173.43 50.7295 173.933 50.2975 174.548 49.9947C175.164 49.692 175.856 49.5406 176.624 49.5406ZM189.388 49.5406C190.583 49.5406 191.615 49.7548 192.484 50.1831C193.353 50.604 194.023 51.239 194.494 52.0882C194.965 52.9374 195.2 54.0007 195.2 55.2782V57.2055H187.606C187.642 57.8627 187.882 58.4018 188.323 58.8226C188.773 59.2435 189.431 59.454 190.301 59.454C191.068 59.454 191.771 59.3765 192.408 59.2214C193.052 59.0663 193.716 58.8264 194.396 58.5014V61.6139C193.803 61.9314 193.154 62.164 192.451 62.3117C191.749 62.4594 190.862 62.5332 189.79 62.5332C188.551 62.5332 187.444 62.308 186.465 61.8576C185.488 61.4071 184.717 60.7094 184.152 59.7641C183.594 58.8189 183.316 57.6042 183.316 56.12C183.316 54.6136 183.569 53.3768 184.076 52.4095C184.583 51.4347 185.292 50.7148 186.205 50.2495C187.117 49.777 188.178 49.5406 189.388 49.5406ZM189.54 52.487C189.04 52.487 188.621 52.6494 188.28 52.9743C187.947 53.2918 187.751 53.794 187.693 54.4807H191.344C191.337 54.1115 191.264 53.7755 191.126 53.4727C190.989 53.17 190.786 52.93 190.518 52.7528C190.257 52.5756 189.931 52.487 189.54 52.487ZM205.303 49.5406C206.57 49.5406 207.606 49.9061 208.411 50.6372C209.214 51.3682 209.616 52.5386 209.616 54.1484V62.3117H205.368V55.4665C205.368 54.6321 205.249 54.0044 205.009 53.5835C204.779 53.1552 204.402 52.9411 203.88 52.9411C203.077 52.9411 202.537 53.2771 202.261 53.9491C201.986 54.6136 201.849 55.5699 201.849 56.8178V62.3117H197.601V49.7622H200.806L201.381 51.4236H201.544C201.805 51.0248 202.117 50.6852 202.478 50.4046C202.841 50.124 203.257 49.9098 203.728 49.7622C204.199 49.6145 204.724 49.5406 205.303 49.5406ZM218.535 59.1106C218.919 59.1106 219.27 59.07 219.589 58.9887C219.908 58.9075 220.241 58.8041 220.588 58.6787V61.8354C220.125 62.0422 219.632 62.2083 219.111 62.3338C218.596 62.4668 217.938 62.5332 217.133 62.5332C216.337 62.5332 215.635 62.4076 215.026 62.1566C214.418 61.8981 213.943 61.4551 213.603 60.8275C213.27 60.1924 213.104 59.31 213.104 58.1802V53.0076H211.615V51.2464L213.505 49.884L214.602 47.2478H217.383V49.7622H220.404V53.0076H217.383V57.8923C217.383 58.2983 217.485 58.6048 217.687 58.8115C217.89 59.011 218.173 59.1106 218.535 59.1106Z" fill="white"/>
</g>
<defs>
<clipPath id="clip0_5_3137">
<rect width="243" height="87" fill="white"/>
</clipPath>
</defs>
</svg>
